{"glyphs":{":":{"x_min":0,"x_max":406,"ha":406,"o":"m 202 495 q 237 495 260 472 q 283 449 283 415 q 283 383 260 359 q 236 336 203 336 q 171 336 147 359 q 124 383 124 415 q 124 447 147 471 q 170 495 202 495 z m 202 148 q 236 148 260 125 q 283 102 283 68 q 283 35 259 11 q 235 -12 203 -12 q 171 -12 147 12 q 123 36 123 68 q 123 100 147 124 q 170 148 202 148 z"},"$":{"x_min":0,"x_max":646,"ha":646,"o":"m 256 12 l 256 309 q 154 343 107 388 q 60 434 60 498 q 60 523 68 548 q 77 573 94 596 q 110 619 135 638 q 160 657 188 669 q 216 681 256 690 l 256 725 l 273 725 l 273 692 q 296 695 331 695 q 351 695 363 694 l 363 725 l 380 725 l 380 693 q 420 687 445 681 q 469 674 492 663 q 515 652 533 637 q 592 591 592 534 q 592 504 573 485 q 554 465 525 465 q 497 465 478 482 q 459 500 459 527 q 459 571 510 590 q 531 597 531 606 q 531 619 503 638 q 457 667 380 676 l 380 415 q 449 392 480 377 q 529 354 561 327 q 593 300 608 268 q 623 235 623 195 q 623 146 600 105 q 576 63 532 34 q 501 15 469 5 q 436 -5 380 -11 l 380 -99 l 363 -99 l 363 -13 l 350 -13 q 341 -13 273 -11 l 273 -99 l 256 -99 l 256 -8 q 193 -1 157 10 q 121 22 92 44 q 42 83 42 139 q 42 173 63 194 q 84 215 118 215 q 149 215 168 196 q 188 177 188 147 q 188 126 178 112 q 167 97 143 84 q 119 72 119 61 q 119 47 151 35 q 195 16 256 12 z m 363 421 l 363 678 l 345 678 q 313 678 273 674 l 273 449 q 304 439 363 421 z m 256 455 l 256 670 q 128 644 128 561 q 128 524 158 499 q 188 474 256 455 z m 363 274 l 337 282 q 325 287 310 291 q 295 296 273 303 l 273 9 q 294 7 333 7 l 363 7 z m 380 268 l 380 8 q 427 11 462 27 q 498 43 516 69 q 535 95 535 129 q 535 177 500 209 q 464 242 380 268 z"},"?":{"x_min":0,"x_max":646,"ha":646,"o":"m 367 346 l 374 357 q 396 386 407 410 q 419 435 424 462 q 429 489 429 526 q 429 601 401 639 q 373 678 317 678 q 279 678 244 664 q 208 650 180 626 q 165 612 165 598 q 165 589 172 585 q 179 582 196 579 q 215 577 229 571 q 249 562 260 545 q 270 527 270 506 q 270 473 247 450 q 223 428 189 428 q 154 428 130 455 q 107 482 107 522 q 107 562 130 600 q 153 637 194 662 q 251 696 331 696 q 388 696 436 683 q 483 670 517 647 q 552 624 570 591 q 589 559 589 521 q 589 469 556 431 q 522 393 447 360 q 408 343 388 330 q 369 316 361 299 q 353 283 350 254 l 331 253 q 335 286 342 304 q 349 322 367 346 z m 338 149 q 373 149 396 126 q 420 103 420 68 q 420 35 396 11 q 372 -12 340 -12 q 307 -12 283 11 q 259 35 259 68 q 259 89 270 108 q 280 127 298 138 q 316 149 338 149 z"},"<":{"x_min":0,"x_max":564,"ha":564,"o":"m 18 345 l 543 572 l 543 530 l 91 333 l 543 135 l 543 91 l 18 321 z"},"'":{"x_min":0,"x_max":406,"ha":406,"o":"m 133 419 l 123 434 q 207 477 207 518 q 207 528 200 535 q 192 543 176 550 q 149 564 138 580 q 127 595 127 620 q 127 650 148 672 q 169 693 200 693 q 223 693 241 681 q 259 668 269 647 q 279 626 279 598 q 279 523 220 469 q 203 452 186 442 q 168 432 133 419 z"},"=":{"x_min":0,"x_max":564,"ha":564,"o":"m 18 431 l 545 431 l 545 391 l 18 391 z m 18 272 l 545 272 l 545 232 l 18 232 z"},"a":{"x_min":0,"x_max":875,"ha":875,"o":"m 375 536 l 241 232 l 512 232 z m 427 696 l 445 696 l 719 99 q 732 71 749 53 q 765 35 786 27 q 806 19 834 19 l 852 19 l 852 0 l 456 0 l 456 19 l 508 19 q 546 19 564 30 q 582 40 582 62 q 582 76 575 95 q 568 115 544 166 q 542 169 540 176 q 537 183 533 189 l 522 214 l 233 214 l 211 163 q 200 137 200 111 q 200 88 213 66 q 225 44 245 33 q 258 25 269 23 q 279 20 299 19 l 299 0 l 21 0 l 21 19 q 51 22 69 30 q 87 37 109 54 q 161 94 210 205 z"},"L":{"x_min":0,"x_max":823,"ha":823,"o":"m 31 682 l 496 682 l 496 664 l 447 664 q 384 664 354 634 q 323 604 323 540 l 323 18 l 500 18 q 552 18 599 41 q 645 64 679 106 q 700 132 715 157 q 731 183 745 219 q 759 255 773 302 l 791 302 l 791 0 l 31 0 l 30 18 l 55 18 q 179 18 179 143 l 179 540 q 179 664 55 664 l 31 664 z"},"3":{"x_min":0,"x_max":646,"ha":646,"o":"m 389 366 l 389 367 l 389 365 q 466 354 500 339 q 542 323 570 300 q 598 277 612 247 q 626 218 626 184 q 626 126 586 82 q 546 38 473 13 q 400 -11 308 -11 q 255 -11 204 0 q 153 10 123 27 q 90 46 71 77 q 51 108 51 139 q 51 175 74 199 q 98 223 133 223 q 167 223 189 201 q 211 180 211 147 q 211 126 201 111 q 192 96 170 81 q 149 68 149 57 q 149 35 192 21 q 234 7 298 7 q 387 7 428 47 q 472 93 467 180 q 461 280 423 316 q 383 354 310 354 q 292 354 244 350 q 231 348 218 348 q 190 348 190 365 q 190 382 221 382 q 227 382 254 379 q 289 375 311 375 q 354 375 381 389 q 407 403 419 433 q 431 463 431 516 q 431 545 426 570 q 421 594 412 613 q 403 633 390 645 q 357 678 295 678 q 258 678 226 670 q 193 662 174 648 q 154 635 154 620 q 154 612 159 607 q 164 602 177 594 q 200 583 210 568 q 220 552 220 529 q 220 497 199 476 q 178 455 146 455 q 112 455 90 478 q 67 501 67 535 q 67 582 99 619 q 132 656 191 677 q 250 697 324 697 q 401 697 459 676 q 517 654 548 615 q 580 576 580 523 q 580 490 566 462 q 552 434 525 413 q 494 390 437 376 q 423 373 389 366 z"},";":{"x_min":0,"x_max":406,"ha":406,"o":"m 134 -136 l 124 -120 q 208 -77 208 -36 q 208 -26 201 -19 q 194 -12 177 -4 q 150 10 139 25 q 128 41 128 66 q 128 97 149 118 q 170 139 201 139 q 235 139 258 112 q 280 85 280 44 q 280 -30 221 -86 q 203 -102 186 -112 q 168 -122 134 -136 z m 202 495 q 237 495 260 472 q 283 449 283 415 q 283 383 260 359 q 236 336 203 336 q 171 336 147 359 q 124 383 124 415 q 124 447 147 471 q 170 495 202 495 z"},"J":{"x_min":0,"x_max":708,"ha":708,"o":"m 213 682 l 683 682 l 683 664 l 663 664 q 538 664 538 540 l 538 209 q 538 114 482 59 q 444 23 390 4 q 335 -15 272 -15 q 213 -15 166 2 q 118 19 87 50 q 67 71 56 95 q 44 120 44 143 q 44 181 71 208 q 97 235 135 235 q 172 235 196 211 q 219 187 219 150 q 219 91 154 68 q 134 61 134 53 q 134 41 161 24 q 195 3 251 3 q 296 3 329 19 q 361 35 378 66 q 395 96 395 139 l 395 540 q 395 664 270 664 l 213 664 z"},"V":{"x_min":0,"x_max":875,"ha":875,"o":"m 23 682 l 422 682 l 422 664 l 373 664 q 340 664 321 650 q 302 637 302 612 q 302 588 316 556 l 502 148 l 658 500 q 677 541 677 570 q 677 612 651 637 q 625 662 578 664 l 578 682 l 853 682 l 853 664 q 814 660 783 641 q 752 623 727 589 q 702 554 676 497 l 449 -13 l 432 -14 l 168 562 q 121 664 47 664 l 23 664 z"},"\"":{"x_min":0,"x_max":594,"ha":594,"o":"m 322 419 l 312 435 q 395 479 395 518 q 395 535 364 551 q 336 565 325 580 q 314 595 314 618 q 314 649 336 672 q 358 694 389 694 q 423 694 445 667 q 466 639 466 595 q 466 523 411 471 q 393 454 375 444 q 357 433 322 419 z m 129 419 l 119 435 q 202 479 202 518 q 202 527 195 534 q 188 542 171 551 q 144 564 133 580 q 121 595 121 618 q 121 650 143 672 q 165 694 196 694 q 230 694 252 667 q 273 639 273 595 q 273 561 259 529 q 245 497 218 471 q 186 442 129 419 z"},"7":{"x_min":0,"x_max":646,"ha":646,"o":"m 627 683 l 627 665 l 613 643 q 567 569 538 516 q 508 462 487 411 q 466 359 446 296 q 416 198 395 101 q 385 48 380 0 l 220 0 q 231 59 249 100 q 273 157 296 195 q 371 323 485 477 l 543 555 l 241 555 q 191 555 164 543 q 137 530 123 499 q 109 468 101 406 l 84 406 l 117 683 z"},"S":{"x_min":0,"x_max":781,"ha":781,"o":"m 677 669 l 694 669 l 694 435 l 677 435 q 646 520 607 567 q 579 600 536 625 q 493 650 440 665 q 387 679 333 679 q 292 679 261 668 q 229 657 207 635 q 191 619 182 600 q 173 580 173 562 q 173 528 199 503 q 211 491 234 479 q 257 468 293 458 q 329 447 393 431 q 411 426 417 425 l 441 419 l 479 409 q 576 384 620 365 q 665 346 696 315 q 720 292 734 261 q 747 230 747 195 q 747 160 732 124 q 717 89 689 62 q 653 25 600 6 q 547 -12 479 -12 q 432 -12 390 -3 q 348 7 288 32 q 249 48 229 53 q 208 59 190 59 q 155 59 131 41 q 107 22 99 -11 l 82 -11 l 82 304 l 99 304 q 109 220 167 152 q 202 112 256 77 q 310 43 369 24 q 428 5 481 5 q 528 5 568 21 q 607 36 629 64 q 651 92 651 127 q 651 164 621 194 q 607 207 586 218 q 564 229 530 241 q 495 253 435 269 l 386 282 q 272 313 228 330 q 179 348 151 366 q 123 384 102 412 q 72 451 72 498 q 72 555 105 600 q 139 645 200 670 q 260 696 334 696 q 445 696 565 634 q 607 613 622 613 q 660 613 677 669 z"},"}":{"x_min":0,"x_max":394,"ha":394,"o":"m 44 -93 l 44 -71 q 65 -67 78 -62 q 91 -57 104 -47 q 121 -34 130 -15 q 139 3 139 21 q 139 51 127 101 q 115 150 115 185 q 115 241 159 286 q 181 309 205 321 q 229 333 275 345 l 275 347 q 224 363 201 375 q 178 387 157 409 q 137 430 125 456 q 114 482 114 508 q 114 534 126 584 q 138 634 138 667 q 138 692 127 713 q 116 733 97 745 q 81 755 44 764 l 44 786 l 61 787 q 111 787 153 765 q 195 744 220 707 q 245 671 245 630 q 245 596 230 540 q 219 500 219 464 q 219 376 314 361 l 314 332 q 280 326 258 311 q 240 297 230 273 q 219 250 219 225 q 219 191 229 152 q 244 93 244 65 q 244 27 221 -8 q 198 -43 160 -66 q 134 -80 108 -85 q 83 -91 44 -93 z"},"Z":{"x_min":0,"x_max":823,"ha":823,"o":"m 124 682 l 727 682 l 727 664 l 239 18 l 457 18 q 572 18 639 98 q 670 135 689 173 q 708 210 731 283 l 749 283 l 749 0 l 73 0 l 73 19 l 564 665 l 418 665 q 290 665 222 587 q 195 556 179 525 q 163 495 141 433 l 124 433 z"},"x":{"x_min":0,"x_max":1000,"ha":1000,"o":"m 33 682 l 478 682 l 478 664 l 469 664 q 433 664 410 653 q 388 641 388 621 q 388 610 395 594 q 402 578 414 563 l 552 404 l 659 513 q 698 554 698 588 q 698 623 669 643 q 641 663 586 664 l 586 682 l 952 682 l 952 664 q 887 653 841 630 q 756 587 685 515 l 563 390 l 790 125 q 833 75 880 46 q 927 18 968 18 l 980 18 l 980 0 l 526 0 l 526 18 l 565 18 q 607 18 630 30 q 653 42 653 63 q 653 86 629 112 l 471 297 l 359 182 q 342 164 331 150 q 320 135 316 122 q 311 108 311 94 q 311 59 340 39 q 369 18 421 18 l 441 18 l 441 0 l 33 0 l 33 18 q 74 23 102 32 q 129 41 165 57 q 249 97 323 170 l 460 309 l 234 570 q 154 664 51 664 l 33 664 z"},")":{"x_min":0,"x_max":354,"ha":354,"o":"m 30 711 l 40 725 q 93 694 127 668 q 160 641 194 602 q 295 482 295 341 q 295 294 284 251 q 273 208 252 166 q 231 125 201 90 q 167 50 132 21 q 96 -8 39 -42 l 29 -29 q 58 7 72 32 q 87 56 99 92 q 139 197 139 340 q 139 490 95 602 q 84 632 70 656 q 56 680 30 711 z"},"&":{"x_min":0,"x_max":1000,"ha":1000,"o":"m 289 362 l 333 377 q 305 446 305 502 q 305 556 327 601 q 349 645 386 670 q 424 696 470 696 q 528 696 564 657 q 601 619 601 559 q 601 526 589 501 q 577 475 551 455 q 525 434 482 416 l 505 388 q 556 322 602 269 q 625 241 676 185 q 722 239 743 278 q 764 316 764 350 q 764 389 736 411 q 707 434 657 434 l 632 434 l 632 452 l 963 452 l 963 434 q 934 433 912 426 q 890 420 869 406 q 844 390 825 367 q 807 345 781 301 q 757 261 737 231 q 716 201 690 170 q 738 116 776 93 q 814 69 850 69 q 875 69 897 83 q 920 98 935 122 q 949 144 956 171 q 963 197 966 244 l 983 244 q 979 182 968 146 q 957 109 932 76 q 900 33 852 10 q 803 -14 749 -14 q 700 -14 660 3 q 621 21 565 66 q 496 25 431 6 q 365 -13 294 -13 q 232 -13 176 0 q 120 14 87 38 q 27 79 27 144 q 27 201 75 251 q 98 274 125 292 q 152 309 189 325 q 226 341 289 362 z m 534 70 l 552 80 q 500 130 430 219 q 397 264 378 294 q 358 324 341 361 q 295 346 271 333 q 246 321 225 303 q 184 268 184 209 q 184 185 191 159 q 198 134 210 113 q 222 91 240 73 q 291 22 375 22 q 413 22 446 32 q 480 42 534 70 z m 451 458 l 470 431 q 512 448 530 469 q 548 490 548 520 q 548 544 538 578 q 527 612 512 634 q 485 675 449 675 q 421 675 400 654 q 380 633 380 604 q 380 579 395 549 q 409 519 451 458 z"},"_":{"x_min":0,"x_max":500,"ha":500,"o":"m -6 -125 l -6 -74 l 506 -74 l 506 -125 z"},"v":{"x_min":0,"x_max":875,"ha":875,"o":"m 23 682 l 422 682 l 422 664 l 373 664 q 340 664 321 650 q 302 637 302 612 q 302 588 316 556 l 502 148 l 658 500 q 677 541 677 570 q 677 612 651 637 q 625 662 578 664 l 578 682 l 853 682 l 853 664 q 814 660 783 641 q 752 623 727 589 q 702 554 676 497 l 449 -13 l 432 -14 l 168 562 q 121 664 47 664 l 23 664 z"},"O":{"x_min":0,"x_max":958,"ha":958,"o":"m 476 696 q 572 696 651 665 q 730 635 789 576 q 838 526 865 465 q 892 404 892 340 q 892 244 838 163 q 783 82 690 34 q 596 -13 485 -13 q 400 -13 325 14 q 250 41 193 90 q 136 139 104 204 q 72 270 72 341 q 72 436 127 518 q 182 600 275 648 q 368 696 476 696 z m 489 678 q 444 678 405 663 q 366 647 339 619 q 310 588 289 546 q 268 504 258 452 q 247 400 247 340 q 247 265 264 203 q 280 141 312 96 q 343 52 386 28 q 430 5 483 5 q 555 5 609 46 q 662 87 691 164 q 719 241 719 346 q 719 415 704 474 q 688 534 659 578 q 629 622 588 648 q 567 662 541 670 q 514 678 489 678 z"},"(":{"x_min":0,"x_max":354,"ha":354,"o":"m 324 725 l 333 711 q 306 677 293 655 q 279 632 265 596 q 244 542 233 477 q 223 412 223 338 q 223 194 263 88 q 275 54 290 30 q 305 5 333 -29 l 323 -44 q 283 -19 257 0 q 230 19 210 38 q 190 57 165 86 q 67 202 67 340 q 67 480 162 593 q 192 629 228 659 q 265 689 324 725 z"},"C":{"x_min":0,"x_max":854,"ha":854,"o":"m 778 240 l 795 240 q 783 197 769 168 q 755 139 730 108 q 631 -14 465 -14 q 360 -14 270 34 q 180 83 126 165 q 73 248 73 343 q 73 399 94 455 q 115 511 156 560 q 196 608 249 643 q 330 696 435 696 q 470 696 502 690 q 533 684 561 670 q 589 657 619 635 q 652 612 668 612 q 703 612 755 684 l 772 684 l 786 356 l 770 356 q 762 392 754 414 q 747 437 734 461 q 700 530 654 579 q 608 628 554 654 q 500 680 443 680 q 375 680 332 644 q 289 607 268 531 q 247 454 247 335 q 247 267 254 214 q 262 161 277 125 q 292 88 316 64 q 345 35 386 19 q 427 4 476 4 q 521 4 563 16 q 605 27 641 51 q 678 74 708 108 q 732 136 748 165 q 763 193 778 240 z"},"W":{"x_min":0,"x_max":1177,"ha":1177,"o":"m 21 682 l 376 682 l 377 664 q 333 664 313 652 q 293 641 293 617 q 293 594 302 568 l 446 169 l 585 515 q 568 565 555 588 q 542 612 522 631 q 504 649 486 657 q 467 664 440 664 l 440 682 l 810 682 l 810 664 l 792 664 q 748 664 724 649 q 699 634 699 606 q 699 587 706 570 l 853 169 l 997 536 q 1008 566 1008 590 q 1008 626 979 645 q 951 663 891 664 l 890 682 l 1164 682 l 1164 664 q 1137 662 1120 656 q 1103 649 1083 634 q 1042 602 1013 530 l 799 -15 l 781 -15 l 594 493 l 391 -15 l 372 -15 l 175 525 q 149 599 117 631 q 84 664 38 664 l 21 664 z"},"A":{"x_min":0,"x_max":875,"ha":875,"o":"m 375 536 l 241 232 l 512 232 z m 427 696 l 445 696 l 719 99 q 732 71 749 53 q 765 35 786 27 q 806 19 834 19 l 852 19 l 852 0 l 456 0 l 456 19 l 508 19 q 546 19 564 30 q 582 40 582 62 q 582 76 575 95 q 568 115 544 166 q 542 169 540 176 q 537 183 533 189 l 522 214 l 233 214 l 211 163 q 200 137 200 111 q 200 88 213 66 q 225 44 245 33 q 258 25 269 23 q 279 20 299 19 l 299 0 l 21 0 l 21 19 q 51 22 69 30 q 87 37 109 54 q 161 94 210 205 z"},"f":{"x_min":0,"x_max":823,"ha":823,"o":"m 323 664 l 323 368 l 366 368 q 434 368 472 413 q 510 457 527 556 l 544 556 l 544 165 l 526 165 q 518 216 507 246 q 496 275 476 299 q 435 350 357 350 l 323 350 l 323 143 q 323 80 354 50 q 384 19 447 19 l 490 19 l 490 0 l 38 0 l 38 19 l 55 19 q 118 19 149 50 q 179 80 179 143 l 179 540 q 179 604 149 634 q 119 664 55 664 l 38 664 l 38 682 l 784 682 l 784 387 l 768 387 q 761 425 752 457 q 743 489 735 506 q 710 560 676 595 q 641 630 593 647 q 545 664 485 664 z"},"Q":{"x_min":0,"x_max":958,"ha":958,"o":"m 917 102 l 932 93 q 923 66 916 50 q 908 33 900 20 q 892 7 879 -7 q 839 -52 789 -52 q 730 -52 656 18 q 573 -14 483 -14 q 372 -14 277 33 q 182 81 127 162 q 72 243 72 340 q 72 412 104 478 q 136 544 192 592 q 248 640 324 667 q 400 695 484 695 q 568 695 642 667 q 717 640 773 591 q 830 542 861 477 q 892 412 892 339 q 892 271 859 200 q 841 164 820 137 q 799 111 761 80 q 790 62 808 54 q 826 47 844 47 q 884 47 917 102 z m 394 144 l 381 149 q 388 187 417 207 q 447 227 493 227 q 524 227 549 220 q 575 212 605 195 q 635 177 682 142 q 719 231 719 343 q 719 418 703 479 q 686 541 655 586 q 624 630 580 654 q 537 678 484 678 q 430 678 386 654 q 343 630 312 585 q 280 540 264 478 q 247 416 247 340 q 247 239 276 163 q 305 87 359 46 q 414 5 485 5 q 522 5 554 17 q 585 28 619 55 q 558 118 518 145 q 478 171 443 171 q 425 171 416 166 q 407 160 394 144 z"},"w":{"x_min":0,"x_max":1177,"ha":1177,"o":"m 21 682 l 376 682 l 377 664 q 333 664 313 652 q 293 641 293 617 q 293 594 302 568 l 446 169 l 585 515 q 568 565 555 588 q 542 612 522 631 q 504 649 486 657 q 467 664 440 664 l 440 682 l 810 682 l 810 664 l 792 664 q 748 664 724 649 q 699 634 699 606 q 699 587 706 570 l 853 169 l 997 536 q 1008 566 1008 590 q 1008 626 979 645 q 951 663 891 664 l 890 682 l 1164 682 l 1164 664 q 1137 662 1120 656 q 1103 649 1083 634 q 1042 602 1013 530 l 799 -15 l 781 -15 l 594 493 l 391 -15 l 372 -15 l 175 525 q 149 599 117 631 q 84 664 38 664 l 21 664 z"},"-":{"x_min":0,"x_max":531,"ha":531,"o":"m 104 293 l 439 293 l 439 169 l 104 169 z"},"E":{"x_min":0,"x_max":823,"ha":823,"o":"m 33 682 l 759 682 l 759 418 l 744 418 q 724 487 708 522 q 692 556 667 587 q 636 624 600 639 q 540 664 454 664 l 320 664 l 320 340 l 356 340 q 437 340 484 409 q 508 445 520 494 q 526 515 531 556 l 548 556 l 548 109 l 531 109 q 525 145 517 177 q 509 209 499 229 q 489 249 473 269 q 429 323 348 323 l 320 323 l 320 18 l 432 18 q 482 18 522 25 q 562 32 593 47 q 625 62 653 86 q 701 126 727 187 q 742 222 759 281 l 777 281 l 777 0 l 34 0 l 33 18 l 52 18 q 176 18 176 143 l 176 540 q 176 604 146 634 q 115 664 52 664 l 33 664 z"},"s":{"x_min":0,"x_max":781,"ha":781,"o":"m 677 669 l 694 669 l 694 435 l 677 435 q 646 520 607 567 q 579 600 536 625 q 493 650 440 665 q 387 679 333 679 q 292 679 261 668 q 229 657 207 635 q 191 619 182 600 q 173 580 173 562 q 173 528 199 503 q 211 491 234 479 q 257 468 293 458 q 329 447 393 431 q 411 426 417 425 l 441 419 l 479 409 q 576 384 620 365 q 665 346 696 315 q 720 292 734 261 q 747 230 747 195 q 747 160 732 124 q 717 89 689 62 q 653 25 600 6 q 547 -12 479 -12 q 432 -12 390 -3 q 348 7 288 32 q 249 48 229 53 q 208 59 190 59 q 155 59 131 41 q 107 22 99 -11 l 82 -11 l 82 304 l 99 304 q 109 220 167 152 q 202 112 256 77 q 310 43 369 24 q 428 5 481 5 q 528 5 568 21 q 607 36 629 64 q 651 92 651 127 q 651 164 621 194 q 607 207 586 218 q 564 229 530 241 q 495 253 435 269 l 386 282 q 272 313 228 330 q 179 348 151 366 q 123 384 102 412 q 72 451 72 498 q 72 555 105 600 q 139 645 200 670 q 260 696 334 696 q 445 696 565 634 q 607 613 622 613 q 660 613 677 669 z"},">":{"x_min":0,"x_max":564,"ha":564,"o":"m 543 319 l 18 91 l 18 133 l 471 330 l 18 528 l 18 572 l 543 343 z"},"l":{"x_min":0,"x_max":823,"ha":823,"o":"m 31 682 l 496 682 l 496 664 l 447 664 q 384 664 354 634 q 323 604 323 540 l 323 18 l 500 18 q 552 18 599 41 q 645 64 679 106 q 700 132 715 157 q 731 183 745 219 q 759 255 773 302 l 791 302 l 791 0 l 31 0 l 30 18 l 55 18 q 179 18 179 143 l 179 540 q 179 664 55 664 l 31 664 z"},"8":{"x_min":0,"x_max":646,"ha":646,"o":"m 412 392 q 448 418 463 451 q 478 484 478 531 q 478 604 438 641 q 399 678 322 678 q 270 678 230 664 q 191 649 170 623 q 149 597 149 561 q 149 540 157 522 q 166 503 180 490 q 188 482 208 470 q 260 443 355 411 q 374 405 412 392 z m 238 313 q 204 292 182 270 q 160 247 150 219 q 140 191 140 155 q 140 4 330 4 q 386 4 430 21 q 474 38 499 67 q 524 97 524 133 q 524 173 495 199 q 482 210 467 220 q 427 241 371 264 q 354 271 338 277 q 322 283 305 289 q 295 293 282 298 q 269 302 260 305 q 251 309 238 313 z m 217 322 q 137 356 102 398 q 67 440 67 502 q 67 561 99 605 q 131 649 192 672 q 252 696 334 696 q 467 696 530 633 q 550 614 562 587 q 573 560 573 533 q 573 501 560 475 q 546 449 516 426 q 486 403 437 382 q 517 352 558 319 q 625 263 625 188 q 625 155 612 124 q 599 93 574 69 q 490 -12 319 -12 q 250 -12 189 2 q 128 16 91 42 q 29 84 29 151 q 29 189 47 219 q 66 249 107 274 q 149 299 217 322 z"},"\\":{"x_min":0,"x_max":278,"ha":278,"o":"m 1 677 l 62 677 l 281 -15 l 218 -15 z"},"e":{"x_min":0,"x_max":823,"ha":823,"o":"m 33 682 l 759 682 l 759 418 l 744 418 q 724 487 708 522 q 692 556 667 587 q 636 624 600 639 q 540 664 454 664 l 320 664 l 320 340 l 356 340 q 437 340 484 409 q 508 445 520 494 q 526 515 531 556 l 548 556 l 548 109 l 531 109 q 525 145 517 177 q 509 209 499 229 q 489 249 473 269 q 429 323 348 323 l 320 323 l 320 18 l 432 18 q 482 18 522 25 q 562 32 593 47 q 625 62 653 86 q 701 126 727 187 q 742 222 759 281 l 777 281 l 777 0 l 34 0 l 33 18 l 52 18 q 176 18 176 143 l 176 540 q 176 604 146 634 q 115 664 52 664 l 33 664 z"},"b":{"x_min":0,"x_max":875,"ha":875,"o":"m 319 665 l 319 366 l 467 366 q 649 366 649 525 q 649 596 610 631 q 571 665 490 665 z m 319 347 l 319 17 l 472 17 q 569 17 621 60 q 673 104 673 183 q 673 251 631 291 q 599 323 553 335 q 507 347 419 347 z m 31 682 l 531 682 q 589 682 643 671 q 697 659 728 640 q 766 618 787 586 q 808 554 808 517 q 808 458 742 414 q 716 396 686 385 q 655 373 600 358 l 600 356 q 670 343 716 324 q 840 270 840 174 q 840 121 802 82 q 765 42 696 21 q 626 0 532 0 l 31 0 l 31 19 l 51 19 q 114 19 144 50 q 175 80 175 143 l 175 540 q 175 604 144 634 q 114 665 51 665 l 31 665 z"},"%":{"x_min":0,"x_max":1177,"ha":1177,"o":"m 285 680 q 237 680 214 641 q 192 604 192 505 q 192 423 215 383 q 238 343 285 343 q 333 343 355 382 q 377 422 377 506 q 377 597 355 639 q 333 680 285 680 z m 281 697 q 400 697 455 640 q 479 616 492 584 q 505 551 505 514 q 505 477 492 443 q 479 409 454 385 q 426 357 384 343 q 341 328 283 328 q 216 328 166 351 q 117 373 90 415 q 63 457 63 512 q 63 568 89 610 q 116 652 165 674 q 214 697 281 697 z m 906 343 q 857 343 836 304 q 814 266 814 180 q 814 90 836 49 q 858 8 906 8 q 955 8 976 47 q 998 86 998 175 q 998 262 976 302 q 954 343 906 343 z m 906 361 q 1016 361 1076 303 q 1127 251 1127 174 q 1127 117 1100 76 q 1073 35 1022 13 q 972 -10 904 -10 q 837 -10 788 13 q 738 36 712 78 q 685 120 685 175 q 685 217 700 252 q 716 287 745 312 q 773 336 814 348 q 855 361 906 361 z m 918 699 l 304 -10 l 273 -10 l 885 699 z"},"m":{"x_min":0,"x_max":1115,"ha":1115,"o":"m 24 682 l 309 682 l 566 160 l 821 682 l 1090 682 l 1090 664 l 1065 664 q 1002 664 971 634 q 941 603 941 540 l 941 143 q 941 81 972 50 q 1002 19 1065 19 l 1090 19 l 1090 0 l 649 0 l 649 19 l 678 19 q 741 19 771 50 q 802 80 802 143 l 802 607 l 800 607 l 507 0 l 490 0 l 194 605 l 192 605 l 192 165 q 192 119 209 87 q 227 55 261 38 q 295 21 344 19 l 344 0 l 24 0 l 24 19 l 31 19 q 97 19 134 58 q 172 96 172 162 l 172 540 q 172 604 142 634 q 111 664 48 664 l 24 664 z"},"#":{"x_min":0,"x_max":500,"ha":500,"o":"m 56 -14 l 102 208 l 18 208 l 18 249 l 109 249 l 143 416 l 18 416 l 18 455 l 152 455 l 197 677 l 237 677 l 193 455 l 357 455 l 405 677 l 445 677 l 399 455 l 482 455 l 482 416 l 392 416 l 357 249 l 482 249 l 482 208 l 349 208 l 304 -14 l 264 -14 l 309 208 l 143 208 l 97 -14 z m 150 249 l 316 249 l 351 416 l 185 416 z"},",":{"x_min":0,"x_max":406,"ha":406,"o":"m 134 -133 l 125 -118 q 208 -75 208 -34 q 208 -15 178 -2 q 151 12 139 28 q 128 43 128 68 q 128 99 149 120 q 171 141 202 141 q 237 141 258 115 q 280 88 280 46 q 280 -28 221 -83 q 202 -101 183 -112 q 165 -122 134 -133 z"},"n":{"x_min":0,"x_max":979,"ha":979,"o":"m 41 682 l 315 682 l 789 191 l 789 485 q 789 539 771 579 q 752 619 718 640 q 699 652 680 657 q 662 662 628 664 l 628 682 l 966 682 l 966 664 l 959 664 q 885 664 847 617 q 808 570 808 481 l 808 -7 l 792 -7 l 203 598 l 203 193 q 203 134 217 98 q 231 63 263 43 q 289 27 326 23 q 347 20 385 18 l 385 0 l 29 0 l 29 18 q 83 21 118 37 q 152 54 169 86 q 185 118 185 166 l 185 552 q 185 587 169 612 q 153 637 123 651 q 93 664 50 664 l 41 664 z"},"h":{"x_min":0,"x_max":1000,"ha":1000,"o":"m 32 19 l 54 19 q 117 19 148 50 q 178 80 178 143 q 185 178 186 209 q 188 240 187 302 q 186 368 183 449 q 180 529 177 553 q 174 589 166 607 q 158 625 142 638 q 113 664 54 664 l 31 664 l 31 682 l 461 682 l 461 664 l 446 664 q 383 664 352 634 q 322 603 322 540 l 322 357 l 689 357 l 689 540 q 689 604 659 634 q 628 664 565 664 l 551 664 l 551 682 l 977 682 l 977 664 l 957 664 q 895 664 864 634 q 833 603 833 540 l 833 143 q 833 81 864 50 q 896 19 957 19 l 977 19 l 977 0 l 551 0 l 551 19 l 565 19 q 628 19 658 50 q 689 80 689 143 l 689 337 l 322 337 l 322 143 q 322 81 353 50 q 384 19 446 19 l 461 19 l 461 0 l 32 0 z"},"z":{"x_min":0,"x_max":823,"ha":823,"o":"m 124 682 l 727 682 l 727 664 l 239 18 l 457 18 q 572 18 639 98 q 670 135 689 173 q 708 210 731 283 l 749 283 l 749 0 l 73 0 l 73 19 l 564 665 l 418 665 q 290 665 222 587 q 195 556 179 525 q 163 495 141 433 l 124 433 z"},"B":{"x_min":0,"x_max":875,"ha":875,"o":"m 319 665 l 319 366 l 467 366 q 649 366 649 525 q 649 596 610 631 q 571 665 490 665 z m 319 347 l 319 17 l 472 17 q 569 17 621 60 q 673 104 673 183 q 673 251 631 291 q 599 323 553 335 q 507 347 419 347 z m 31 682 l 531 682 q 589 682 643 671 q 697 659 728 640 q 766 618 787 586 q 808 554 808 517 q 808 458 742 414 q 716 396 686 385 q 655 373 600 358 l 600 356 q 670 343 716 324 q 840 270 840 174 q 840 121 802 82 q 765 42 696 21 q 626 0 532 0 l 31 0 l 31 19 l 51 19 q 114 19 144 50 q 175 80 175 143 l 175 540 q 175 604 144 634 q 114 665 51 665 l 31 665 z"},"K":{"x_min":0,"x_max":1000,"ha":1000,"o":"m 54 682 l 486 682 l 486 665 l 466 665 q 404 665 373 634 q 342 603 342 540 l 342 243 l 665 502 q 697 529 708 546 q 719 562 719 585 q 719 622 688 643 q 657 665 603 665 l 587 665 l 587 682 l 986 682 l 986 665 l 976 665 q 894 665 741 542 l 607 435 l 813 119 q 847 66 885 43 q 923 19 973 19 l 986 19 l 986 0 l 565 0 l 565 19 l 587 19 q 680 19 680 63 q 680 71 676 80 q 672 89 659 109 l 503 350 l 342 221 l 342 143 q 342 81 373 50 q 404 19 466 19 l 486 19 l 486 0 l 55 0 l 55 19 l 74 19 q 137 19 168 50 q 199 81 199 143 l 199 540 q 199 603 168 634 q 137 665 74 665 l 54 665 z"},"R":{"x_min":0,"x_max":1000,"ha":1000,"o":"m 493 334 l 340 334 l 340 143 q 340 81 371 50 q 401 19 464 19 l 484 19 l 484 0 l 53 0 l 53 19 l 72 19 q 135 19 165 50 q 196 80 196 143 l 196 540 q 196 604 166 634 q 135 664 72 664 l 53 664 l 53 682 l 582 682 q 689 682 752 667 q 814 651 851 614 q 872 593 885 564 q 897 535 897 507 q 897 430 817 383 q 787 367 736 354 q 685 341 634 337 q 595 334 516 334 l 516 332 q 555 307 587 290 q 619 273 651 262 q 683 250 724 241 l 740 217 q 756 193 764 182 q 772 170 782 155 q 810 113 834 83 q 859 52 875 40 q 907 19 966 19 l 985 19 l 985 0 l 729 0 z m 340 352 l 534 352 q 603 352 647 369 q 691 386 713 420 q 735 455 735 509 q 735 664 537 664 l 340 664 z"},"T":{"x_min":0,"x_max":875,"ha":875,"o":"m 39 682 l 839 682 l 839 336 l 823 335 q 811 465 745 558 q 667 664 547 664 l 511 664 l 511 143 q 511 19 635 19 l 738 19 l 738 0 l 142 0 l 142 19 l 244 19 q 368 19 368 143 l 368 664 l 324 664 q 202 664 126 550 q 88 494 69 416 q 62 390 56 336 l 39 336 z"},"P":{"x_min":0,"x_max":844,"ha":844,"o":"m 315 664 l 315 324 l 451 324 q 552 324 601 366 q 649 408 649 495 q 649 597 582 637 q 558 651 526 658 q 494 664 446 664 z m 24 682 l 431 682 q 467 682 510 680 q 553 677 587 674 q 622 670 644 665 q 725 648 767 604 q 810 560 810 494 q 810 449 790 414 q 769 379 729 355 q 689 331 632 318 q 574 305 502 305 l 315 305 l 315 143 q 315 18 439 18 l 473 18 l 473 0 l 23 0 l 23 18 l 47 18 q 171 18 171 143 l 171 540 q 171 664 47 664 l 24 664 z"},"|":{"x_min":0,"x_max":200,"ha":200,"o":"m 119 694 l 119 -216 l 79 -216 l 79 694 z"},"t":{"x_min":0,"x_max":875,"ha":875,"o":"m 39 682 l 839 682 l 839 336 l 823 335 q 811 465 745 558 q 667 664 547 664 l 511 664 l 511 143 q 511 19 635 19 l 738 19 l 738 0 l 142 0 l 142 19 l 244 19 q 368 19 368 143 l 368 664 l 324 664 q 202 664 126 550 q 88 494 69 416 q 62 390 56 336 l 39 336 z"},"M":{"x_min":0,"x_max":1115,"ha":1115,"o":"m 24 682 l 309 682 l 566 160 l 821 682 l 1090 682 l 1090 664 l 1065 664 q 1002 664 971 634 q 941 603 941 540 l 941 143 q 941 81 972 50 q 1002 19 1065 19 l 1090 19 l 1090 0 l 649 0 l 649 19 l 678 19 q 741 19 771 50 q 802 80 802 143 l 802 607 l 800 607 l 507 0 l 490 0 l 194 605 l 192 605 l 192 165 q 192 119 209 87 q 227 55 261 38 q 295 21 344 19 l 344 0 l 24 0 l 24 19 l 31 19 q 97 19 134 58 q 172 96 172 162 l 172 540 q 172 604 142 634 q 111 664 48 664 l 24 664 z"},"g":{"x_min":0,"x_max":1000,"ha":1000,"o":"m 815 678 l 833 678 l 838 384 l 822 384 q 805 437 791 469 q 777 500 760 524 q 712 594 639 634 q 566 675 489 675 q 449 675 409 660 q 370 646 345 621 q 305 581 286 509 q 268 438 268 325 q 268 292 271 258 q 274 225 279 199 q 284 174 291 149 q 298 125 307 109 q 322 83 342 64 q 361 45 387 31 q 413 17 442 10 q 472 4 504 4 q 545 4 587 14 q 628 25 654 42 q 702 75 702 131 l 702 166 q 702 290 578 290 l 519 290 l 519 308 l 986 308 l 986 290 l 970 290 q 907 290 877 260 q 846 229 846 166 l 846 6 l 828 6 q 806 26 790 33 q 773 40 749 40 q 728 40 709 36 q 691 32 658 18 q 605 -1 574 -8 q 542 -14 497 -14 q 411 -14 337 12 q 262 38 207 85 q 152 133 122 197 q 92 262 92 336 q 92 381 104 425 q 115 468 137 506 q 159 543 192 577 q 230 615 276 641 q 321 667 372 681 q 423 695 474 695 q 525 695 573 682 q 622 669 680 640 q 724 618 741 618 q 759 618 777 632 q 794 646 815 678 z"},"j":{"x_min":0,"x_max":708,"ha":708,"o":"m 213 682 l 683 682 l 683 664 l 663 664 q 538 664 538 540 l 538 209 q 538 114 482 59 q 444 23 390 4 q 335 -15 272 -15 q 213 -15 166 2 q 118 19 87 50 q 67 71 56 95 q 44 120 44 143 q 44 181 71 208 q 97 235 135 235 q 172 235 196 211 q 219 187 219 150 q 219 91 154 68 q 134 61 134 53 q 134 41 161 24 q 195 3 251 3 q 296 3 329 19 q 361 35 378 66 q 395 96 395 139 l 395 540 q 395 664 270 664 l 213 664 z"},"i":{"x_min":0,"x_max":531,"ha":531,"o":"m 57 19 l 76 19 q 139 19 170 50 q 200 80 200 143 q 204 169 206 190 q 208 210 209 236 q 209 262 209 302 q 207 469 199 553 q 196 587 188 606 q 180 625 164 638 q 135 664 76 664 l 57 664 l 57 682 l 487 682 l 487 664 l 468 664 q 405 664 375 634 q 344 604 344 540 l 344 143 q 344 80 375 50 q 405 19 468 19 l 487 19 l 487 0 l 57 0 z"},"y":{"x_min":0,"x_max":1000,"ha":1000,"o":"m 49 682 l 486 682 l 486 665 l 435 665 q 405 665 388 654 q 371 643 371 622 q 371 612 376 603 q 381 594 405 559 l 574 325 l 726 525 q 757 564 757 592 q 757 624 730 644 q 703 664 660 664 l 615 664 l 615 682 l 966 682 l 966 665 q 931 661 903 652 q 875 643 852 629 q 829 614 803 590 q 778 565 755 535 l 583 308 l 583 143 q 583 81 614 50 q 645 19 707 19 l 753 19 l 753 0 l 267 0 l 267 19 l 315 19 q 378 19 408 50 q 439 80 439 143 l 439 290 l 235 569 q 196 623 158 643 q 121 664 61 664 l 49 664 z"},"@":{"x_min":0,"x_max":833,"ha":833,"o":"m 512 436 l 627 440 l 541 145 q 526 96 526 72 q 526 56 537 45 q 548 34 565 34 q 597 34 648 71 q 700 108 734 178 q 768 248 768 326 q 768 456 684 540 q 600 623 466 623 q 350 623 255 569 q 161 514 105 411 q 50 307 50 188 q 50 26 154 -78 q 257 -182 418 -182 q 550 -182 655 -111 q 760 -40 804 78 l 833 78 q 777 -61 668 -134 q 560 -208 417 -208 q 236 -208 118 -91 q 0 26 0 205 q 0 329 59 434 q 118 540 223 596 q 329 653 456 653 q 560 653 638 611 q 716 569 755 494 q 794 419 794 334 q 794 238 752 158 q 710 77 647 39 q 584 0 512 0 q 464 0 440 23 q 416 46 416 84 q 416 107 427 148 q 389 84 367 60 q 338 26 309 10 q 289 0 265 0 q 231 0 209 27 q 186 53 186 106 q 186 172 212 240 q 238 307 280 357 q 322 406 373 436 q 402 453 429 453 q 456 453 473 437 q 490 420 496 379 z m 442 419 q 430 419 416 408 q 401 398 377 355 q 353 312 330 244 q 307 176 307 130 q 307 108 316 97 q 325 86 335 86 q 349 86 372 109 q 413 148 444 222 q 475 296 475 356 q 475 389 464 404 q 454 419 442 419 z"},".":{"x_min":0,"x_max":406,"ha":406,"o":"m 202 148 q 236 148 260 125 q 284 102 284 68 q 284 35 260 11 q 236 -12 204 -12 q 172 -12 148 12 q 124 36 124 68 q 124 100 147 124 q 170 148 202 148 z"},"p":{"x_min":0,"x_max":844,"ha":844,"o":"m 315 664 l 315 324 l 451 324 q 552 324 601 366 q 649 408 649 495 q 649 597 582 637 q 558 651 526 658 q 494 664 446 664 z m 24 682 l 431 682 q 467 682 510 680 q 553 677 587 674 q 622 670 644 665 q 725 648 767 604 q 810 560 810 494 q 810 449 790 414 q 769 379 729 355 q 689 331 632 318 q 574 305 502 305 l 315 305 l 315 143 q 315 18 439 18 l 473 18 l 473 0 l 23 0 l 23 18 l 47 18 q 171 18 171 143 l 171 540 q 171 664 47 664 l 24 664 z"},"X":{"x_min":0,"x_max":1000,"ha":1000,"o":"m 33 682 l 478 682 l 478 664 l 469 664 q 433 664 410 653 q 388 641 388 621 q 388 610 395 594 q 402 578 414 563 l 552 404 l 659 513 q 698 554 698 588 q 698 623 669 643 q 641 663 586 664 l 586 682 l 952 682 l 952 664 q 887 653 841 630 q 756 587 685 515 l 563 390 l 790 125 q 833 75 880 46 q 927 18 968 18 l 980 18 l 980 0 l 526 0 l 526 18 l 565 18 q 607 18 630 30 q 653 42 653 63 q 653 86 629 112 l 471 297 l 359 182 q 342 164 331 150 q 320 135 316 122 q 311 108 311 94 q 311 59 340 39 q 369 18 421 18 l 441 18 l 441 0 l 33 0 l 33 18 q 74 23 102 32 q 129 41 165 57 q 249 97 323 170 l 460 309 l 234 570 q 154 664 51 664 l 33 664 z"},"*":{"x_min":0,"x_max":646,"ha":646,"o":"m 362 360 l 362 366 q 357 409 350 431 q 342 453 327 468 q 296 432 293 382 q 289 302 239 302 q 215 302 197 319 q 178 336 178 358 q 178 377 190 391 q 202 404 233 418 q 266 434 282 447 q 298 459 314 481 q 281 491 258 491 q 246 491 215 485 q 193 481 181 481 q 123 481 123 531 q 123 556 138 573 q 153 591 175 591 q 191 591 205 582 q 218 574 236 554 q 250 538 263 527 q 275 516 289 509 q 303 501 318 497 q 317 521 315 534 q 313 547 307 561 q 301 574 290 594 q 278 614 274 624 q 271 633 271 645 q 271 668 286 682 q 301 696 325 696 q 350 696 365 682 q 381 667 381 645 q 381 626 362 593 q 346 563 340 544 q 335 526 336 497 q 362 505 379 517 q 396 528 419 554 q 439 575 451 583 q 463 590 479 590 q 500 590 515 571 q 530 553 530 529 q 530 507 514 493 q 499 479 473 479 q 466 479 434 484 q 403 490 389 490 q 366 490 341 479 q 360 455 375 443 q 391 431 418 420 q 421 418 424 417 q 427 416 428 415 q 475 390 475 359 q 475 345 467 331 q 458 317 444 309 q 431 301 416 301 q 396 301 381 317 q 366 333 362 360 z"},"Y":{"x_min":0,"x_max":1000,"ha":1000,"o":"m 49 682 l 486 682 l 486 665 l 435 665 q 405 665 388 654 q 371 643 371 622 q 371 612 376 603 q 381 594 405 559 l 574 325 l 726 525 q 757 564 757 592 q 757 624 730 644 q 703 664 660 664 l 615 664 l 615 682 l 966 682 l 966 665 q 931 661 903 652 q 875 643 852 629 q 829 614 803 590 q 778 565 755 535 l 583 308 l 583 143 q 583 81 614 50 q 645 19 707 19 l 753 19 l 753 0 l 267 0 l 267 19 l 315 19 q 378 19 408 50 q 439 80 439 143 l 439 290 l 235 569 q 196 623 158 643 q 121 664 61 664 l 49 664 z"},"c":{"x_min":0,"x_max":854,"ha":854,"o":"m 778 240 l 795 240 q 783 197 769 168 q 755 139 730 108 q 631 -14 465 -14 q 360 -14 270 34 q 180 83 126 165 q 73 248 73 343 q 73 399 94 455 q 115 511 156 560 q 196 608 249 643 q 330 696 435 696 q 470 696 502 690 q 533 684 561 670 q 589 657 619 635 q 652 612 668 612 q 703 612 755 684 l 772 684 l 786 356 l 770 356 q 762 392 754 414 q 747 437 734 461 q 700 530 654 579 q 608 628 554 654 q 500 680 443 680 q 375 680 332 644 q 289 607 268 531 q 247 454 247 335 q 247 267 254 214 q 262 161 277 125 q 292 88 316 64 q 345 35 386 19 q 427 4 476 4 q 521 4 563 16 q 605 27 641 51 q 678 74 708 108 q 732 136 748 165 q 763 193 778 240 z"},"!":{"x_min":0,"x_max":406,"ha":406,"o":"m 212 288 l 195 288 q 193 319 189 344 q 185 368 177 395 q 168 423 154 461 q 134 516 128 542 q 122 569 122 594 q 122 638 145 667 q 167 696 202 696 q 239 696 262 667 q 285 638 285 592 q 285 547 251 457 q 228 396 221 365 q 214 333 212 288 z m 202 149 q 237 149 260 126 q 284 103 284 68 q 284 34 260 10 q 237 -13 203 -13 q 171 -13 146 11 q 122 35 122 68 q 122 90 133 108 q 144 127 162 138 q 181 149 202 149 z"},"/":{"x_min":0,"x_max":583,"ha":583,"o":"m 445 814 l 559 814 l 138 -19 l 24 -19 z"},"[":{"x_min":0,"x_max":354,"ha":354,"o":"m 74 711 l 335 711 l 335 693 l 320 693 q 260 693 243 674 q 229 659 223 635 q 217 611 217 571 l 217 98 q 217 46 240 22 q 264 -2 315 -2 l 334 -2 l 334 -18 l 74 -18 z"},"6":{"x_min":0,"x_max":646,"ha":646,"o":"m 212 239 l 212 177 q 212 121 227 82 q 242 44 272 24 q 302 5 344 5 q 410 5 438 54 q 449 70 454 95 q 462 130 462 225 q 462 284 454 317 q 445 350 425 371 q 400 397 354 397 q 312 397 280 377 q 248 357 230 321 q 212 285 212 239 z m 212 431 l 212 329 l 214 329 q 273 422 387 422 q 452 422 505 395 q 559 367 590 319 q 621 271 621 214 q 621 151 586 99 q 551 46 490 17 q 429 -12 354 -12 q 293 -12 242 8 q 191 28 151 67 q 119 99 96 141 q 74 184 62 234 q 50 285 50 339 q 50 417 75 484 q 100 551 150 600 q 195 646 256 671 q 317 696 382 696 q 437 696 482 676 q 527 656 553 621 q 580 586 580 545 q 580 512 558 489 q 536 466 503 466 q 469 466 446 487 q 424 508 424 540 q 424 563 435 580 q 447 596 472 609 q 495 622 495 632 q 495 644 480 654 q 464 665 439 672 q 414 678 385 678 q 297 678 255 617 q 212 557 212 431 z"},"r":{"x_min":0,"x_max":1000,"ha":1000,"o":"m 493 334 l 340 334 l 340 143 q 340 81 371 50 q 401 19 464 19 l 484 19 l 484 0 l 53 0 l 53 19 l 72 19 q 135 19 165 50 q 196 80 196 143 l 196 540 q 196 604 166 634 q 135 664 72 664 l 53 664 l 53 682 l 582 682 q 689 682 752 667 q 814 651 851 614 q 872 593 885 564 q 897 535 897 507 q 897 430 817 383 q 787 367 736 354 q 685 341 634 337 q 595 334 516 334 l 516 332 q 555 307 587 290 q 619 273 651 262 q 683 250 724 241 l 740 217 q 756 193 764 182 q 772 170 782 155 q 810 113 834 83 q 859 52 875 40 q 907 19 966 19 l 985 19 l 985 0 l 729 0 z m 340 352 l 534 352 q 603 352 647 369 q 691 386 713 420 q 735 455 735 509 q 735 664 537 664 l 340 664 z"},"2":{"x_min":0,"x_max":646,"ha":646,"o":"m 608 263 l 559 1 l 42 1 q 45 49 94 107 q 138 157 263 247 q 332 298 347 311 q 350 314 354 318 q 358 321 363 326 q 402 367 419 407 q 436 447 436 497 q 436 583 394 629 q 352 675 274 675 q 215 675 166 651 q 117 627 88 586 q 60 545 60 496 q 60 443 84 443 q 94 443 95 457 q 97 469 102 481 q 115 511 135 525 q 156 539 186 539 q 211 539 231 528 q 250 518 261 498 q 272 478 272 454 q 272 427 258 405 q 244 382 220 370 q 197 357 167 357 q 112 357 76 395 q 41 433 41 492 q 41 528 55 562 q 69 597 95 623 q 167 696 315 696 q 376 696 429 681 q 481 666 519 638 q 556 610 576 573 q 596 535 596 491 q 596 427 552 377 q 533 354 509 337 q 462 306 368 267 q 237 212 184 171 q 172 162 137 131 l 456 131 q 500 131 524 139 q 547 147 560 168 q 573 189 583 231 l 590 263 z"},"{":{"x_min":0,"x_max":394,"ha":394,"o":"m 350 786 l 350 764 q 314 758 290 741 q 274 729 264 710 q 255 691 255 672 q 255 639 267 593 q 279 544 279 508 q 279 482 268 456 q 257 430 235 408 q 214 385 189 373 q 164 360 119 349 l 119 347 q 165 334 191 320 q 218 306 238 284 q 258 263 269 237 q 280 211 280 186 q 280 158 268 110 q 256 62 256 26 q 256 2 267 -19 q 279 -40 297 -51 q 314 -63 350 -70 l 350 -93 l 333 -93 q 283 -92 241 -71 q 199 -50 174 -13 q 149 23 149 64 q 149 97 164 154 q 175 194 175 230 q 175 272 150 298 q 126 325 80 332 l 80 362 q 115 368 136 383 q 154 396 164 419 q 175 442 175 468 q 175 502 165 541 q 150 599 150 628 q 150 665 173 702 q 197 738 234 759 q 259 773 284 779 q 309 785 350 786 z"},"9":{"x_min":0,"x_max":646,"ha":646,"o":"m 313 679 q 245 679 216 631 q 205 610 200 589 q 197 577 196 558 q 194 539 193 508 q 192 477 192 454 q 192 405 198 375 q 204 346 218 325 q 243 286 301 286 q 359 286 395 323 q 420 347 431 385 q 442 423 442 481 q 442 549 428 593 q 414 637 385 658 q 357 679 313 679 z m 441 244 l 441 354 l 439 354 q 409 307 368 285 q 327 263 268 263 q 220 263 177 279 q 133 295 101 324 q 68 353 50 391 q 32 428 32 471 q 32 535 67 586 q 102 637 164 667 q 226 696 301 696 q 388 696 458 651 q 527 607 566 527 q 604 448 604 346 q 604 185 506 84 q 459 38 399 13 q 339 -12 274 -12 q 173 -12 115 45 q 73 86 73 135 q 73 171 95 194 q 118 218 151 218 q 186 218 208 197 q 231 176 231 142 q 231 119 220 103 q 209 87 184 75 q 160 63 160 51 q 160 33 194 20 q 227 6 270 6 q 354 6 397 66 q 441 127 441 244 z"}," ":{"x_min":0,"x_max":323,"ha":323,"o":""},"I":{"x_min":0,"x_max":531,"ha":531,"o":"m 57 19 l 76 19 q 139 19 170 50 q 200 80 200 143 q 200 172 200 195 q 200 218 200 239 q 200 260 200 302 q 200 474 200 555 q 196 587 188 606 q 180 625 164 638 q 135 664 76 664 l 57 664 l 57 682 l 487 682 l 487 664 l 468 664 q 405 664 375 634 q 344 604 344 540 l 344 143 q 344 80 375 50 q 405 19 468 19 l 487 19 l 487 0 l 57 0 z"},"H":{"x_min":0,"x_max":1000,"ha":1000,"o":"m 32 19 l 54 19 q 117 19 148 50 q 178 80 178 143 q 178 177 178 208 q 178 240 178 307 q 178 372 178 452 q 178 532 178 558 q 174 589 166 607 q 158 625 142 638 q 113 664 54 664 l 31 664 l 31 682 l 461 682 l 461 664 l 446 664 q 383 664 352 634 q 322 603 322 540 l 322 357 l 689 357 l 689 540 q 689 604 659 634 q 628 664 565 664 l 551 664 l 551 682 l 977 682 l 977 664 l 957 664 q 895 664 864 634 q 833 603 833 540 l 833 143 q 833 81 864 50 q 896 19 957 19 l 977 19 l 977 0 l 551 0 l 551 19 l 565 19 q 628 19 658 50 q 689 80 689 143 l 689 337 l 322 337 l 322 143 q 322 81 353 50 q 384 19 446 19 l 461 19 l 461 0 l 32 0 z"},"4":{"x_min":0,"x_max":646,"ha":646,"o":"m 357 571 l 64 244 l 357 244 z m 446 696 l 484 696 l 484 245 l 632 245 l 632 168 l 484 168 l 484 131 q 484 78 515 48 q 546 19 602 19 l 625 19 l 625 1 l 198 1 l 198 19 l 219 19 q 267 19 297 32 q 328 45 343 73 q 357 101 357 145 l 357 168 l 41 168 l 41 245 z"},"~":{"x_min":0,"x_max":520,"ha":520,"o":"m 510 346 l 538 346 q 535 269 497 229 q 460 188 406 188 q 380 188 351 197 q 322 205 223 247 q 152 276 120 276 q 87 276 65 256 q 42 236 34 189 l 6 189 q 10 269 46 308 q 82 347 133 347 q 159 347 184 340 q 233 326 320 289 q 367 268 392 261 q 406 257 423 257 q 458 257 482 280 q 505 303 510 346 z"},"D":{"x_min":0,"x_max":990,"ha":990,"o":"m 326 664 l 326 19 l 458 19 q 514 19 553 25 q 592 32 622 46 q 651 61 673 84 q 754 167 754 338 q 754 394 744 444 q 734 494 715 532 q 696 570 667 599 q 643 623 613 637 q 583 651 544 658 q 504 664 449 664 z m 33 682 l 486 682 q 596 682 678 655 q 761 627 817 570 q 868 521 895 458 q 923 396 923 331 q 923 259 893 198 q 863 137 809 93 q 754 48 680 24 q 605 0 518 0 l 33 0 l 33 19 l 58 19 q 121 19 152 50 q 182 80 182 143 l 182 540 q 182 604 152 634 q 122 664 58 664 l 33 664 z"},"^":{"x_min":0,"x_max":581,"ha":581,"o":"m 72 325 l 272 676 l 312 676 l 510 325 l 432 325 l 288 575 l 146 325 z"},"0":{"x_min":0,"x_max":646,"ha":646,"o":"m 200 404 l 200 277 q 200 137 231 71 q 263 4 328 4 q 455 4 455 256 l 455 386 q 455 443 451 491 q 448 539 442 562 q 417 677 327 677 q 282 677 254 648 q 227 620 213 561 q 200 502 200 404 z m 334 -12 q 253 -12 185 34 q 117 81 78 162 q 39 244 39 341 q 39 438 78 519 q 116 601 182 648 q 248 695 328 695 q 359 695 392 686 q 425 677 456 658 q 487 640 513 614 q 562 565 589 495 q 616 425 616 341 q 616 290 606 243 q 596 196 575 156 q 555 116 525 83 q 495 50 459 28 q 395 -12 334 -12 z"},"F":{"x_min":0,"x_max":823,"ha":823,"o":"m 323 664 l 323 368 l 366 368 q 434 368 472 413 q 510 457 527 556 l 544 556 l 544 165 l 526 165 q 518 216 507 246 q 496 275 476 299 q 435 350 357 350 l 323 350 l 323 143 q 323 80 354 50 q 384 19 447 19 l 490 19 l 490 0 l 38 0 l 38 19 l 55 19 q 118 19 149 50 q 179 80 179 143 l 179 540 q 179 604 149 634 q 119 664 55 664 l 38 664 l 38 682 l 784 682 l 784 387 l 768 387 q 761 425 752 457 q 743 489 735 506 q 710 560 676 595 q 641 630 593 647 q 545 664 485 664 z"},"`":{"x_min":0,"x_max":333,"ha":333,"o":"m -15 853 l 186 853 l 281 719 l 260 719 z"},"k":{"x_min":0,"x_max":1000,"ha":1000,"o":"m 54 682 l 486 682 l 486 665 l 466 665 q 404 665 373 634 q 342 603 342 540 l 342 243 l 665 502 q 697 529 708 546 q 719 562 719 585 q 719 622 688 643 q 657 665 603 665 l 587 665 l 587 682 l 986 682 l 986 665 l 976 665 q 894 665 741 542 l 607 435 l 813 119 q 847 66 885 43 q 923 19 973 19 l 986 19 l 986 0 l 565 0 l 565 19 l 587 19 q 680 19 680 63 q 680 71 676 80 q 672 89 659 109 l 503 350 l 342 221 l 342 143 q 342 81 373 50 q 404 19 466 19 l 486 19 l 486 0 l 55 0 l 55 19 l 74 19 q 137 19 168 50 q 199 81 199 143 l 199 540 q 199 603 168 634 q 137 665 74 665 l 54 665 z"},"u":{"x_min":0,"x_max":1000,"ha":1000,"o":"m 41 682 l 514 682 l 514 664 l 460 664 q 397 664 367 634 q 336 603 336 540 l 336 194 q 336 135 363 92 q 391 50 442 27 q 493 4 564 4 q 626 4 680 22 q 733 40 765 71 q 823 130 823 238 l 823 482 q 823 599 755 641 q 735 653 714 658 q 692 663 652 664 l 652 682 l 983 682 l 983 664 q 952 662 934 656 q 916 650 897 636 q 869 615 854 580 q 840 545 840 498 l 840 226 q 840 118 781 60 q 748 29 711 15 q 633 -14 525 -14 q 445 -14 380 1 q 315 17 273 46 q 193 101 193 204 l 193 540 q 193 664 69 664 l 41 664 z"},"]":{"x_min":0,"x_max":354,"ha":354,"o":"m 29 712 l 288 712 l 288 -16 l 28 -16 l 28 2 l 49 2 q 100 2 123 26 q 146 50 146 104 l 146 595 q 146 633 136 655 q 127 677 105 687 q 83 696 44 696 l 29 696 z"},"U":{"x_min":0,"x_max":1000,"ha":1000,"o":"m 41 682 l 514 682 l 514 664 l 460 664 q 397 664 367 634 q 336 603 336 540 l 336 194 q 336 135 363 92 q 391 50 442 27 q 493 4 564 4 q 626 4 680 22 q 733 40 765 71 q 823 130 823 238 l 823 482 q 823 599 755 641 q 735 653 714 658 q 692 663 652 664 l 652 682 l 983 682 l 983 664 q 952 662 934 656 q 916 650 897 636 q 869 615 854 580 q 840 545 840 498 l 840 226 q 840 118 781 60 q 748 29 711 15 q 633 -14 525 -14 q 445 -14 380 1 q 315 17 273 46 q 193 101 193 204 l 193 540 q 193 664 69 664 l 41 664 z"},"o":{"x_min":0,"x_max":958,"ha":958,"o":""},"N":{"x_min":0,"x_max":979,"ha":979,"o":"m 41 682 l 315 682 l 789 191 l 789 485 q 789 539 771 579 q 752 619 718 640 q 699 652 680 657 q 662 662 628 664 l 628 682 l 966 682 l 966 664 l 959 664 q 885 664 847 617 q 808 570 808 481 l 808 -7 l 792 -7 l 203 598 l 203 193 q 203 134 217 98 q 231 63 263 43 q 289 27 326 23 q 347 20 385 18 l 385 0 l 29 0 l 29 18 q 83 21 118 37 q 152 54 169 86 q 185 118 185 166 l 185 552 q 185 587 169 612 q 153 637 123 651 q 93 664 50 664 l 41 664 z"},"+":{"x_min":0,"x_max":564,"ha":564,"o":"m 261 69 l 261 312 l 18 312 l 18 353 l 261 353 l 261 595 l 300 595 l 300 353 l 544 353 l 544 312 l 300 312 l 300 69 z"},"G":{"x_min":0,"x_max":1000,"ha":1000,"o":"m 815 678 l 833 678 l 838 384 l 822 384 q 805 437 791 469 q 777 500 760 524 q 712 594 639 634 q 566 675 489 675 q 449 675 409 660 q 370 646 345 621 q 305 581 286 509 q 268 438 268 325 q 268 292 271 258 q 274 225 279 199 q 284 174 291 149 q 298 125 307 109 q 322 83 342 64 q 361 45 387 31 q 413 17 442 10 q 472 4 504 4 q 545 4 587 14 q 628 25 654 42 q 702 75 702 131 l 702 166 q 702 290 578 290 l 519 290 l 519 308 l 986 308 l 986 290 l 970 290 q 907 290 877 260 q 846 229 846 166 l 846 6 l 828 6 q 806 26 790 33 q 773 40 749 40 q 728 40 709 36 q 691 32 658 18 q 605 -1 574 -8 q 542 -14 497 -14 q 411 -14 337 12 q 262 38 207 85 q 152 133 122 197 q 92 262 92 336 q 92 381 104 425 q 115 468 137 506 q 159 543 192 577 q 230 615 276 641 q 321 667 372 681 q 423 695 474 695 q 525 695 573 682 q 622 669 680 640 q 724 618 741 618 q 759 618 777 632 q 794 646 815 678 z"},"q":{"x_min":0,"x_max":958,"ha":958,"o":"m 917 102 l 932 93 q 923 66 916 50 q 908 33 900 20 q 892 7 879 -7 q 839 -52 789 -52 q 730 -52 656 18 q 573 -14 483 -14 q 372 -14 277 33 q 182 81 127 162 q 72 243 72 340 q 72 412 104 478 q 136 544 192 592 q 248 640 324 667 q 400 695 484 695 q 568 695 642 667 q 717 640 773 591 q 830 542 861 477 q 892 412 892 339 q 892 271 859 200 q 841 164 820 137 q 799 111 761 80 q 790 62 808 54 q 826 47 844 47 q 884 47 917 102 z m 394 144 l 381 149 q 388 187 417 207 q 447 227 493 227 q 524 227 549 220 q 575 212 605 195 q 635 177 682 142 q 719 231 719 343 q 719 418 703 479 q 686 541 655 586 q 624 630 580 654 q 537 678 484 678 q 430 678 386 654 q 343 630 312 585 q 280 540 264 478 q 247 416 247 340 q 247 239 276 163 q 305 87 359 46 q 414 5 485 5 q 522 5 554 17 q 585 28 619 55 q 558 118 518 145 q 478 171 443 171 q 425 171 416 166 q 407 160 394 144 z"},"d":{"x_min":0,"x_max":990,"ha":990,"o":"m 326 664 l 326 19 l 458 19 q 514 19 553 25 q 592 32 622 46 q 651 61 673 84 q 754 167 754 338 q 754 394 744 444 q 734 494 715 532 q 696 570 667 599 q 643 623 613 637 q 583 651 544 658 q 504 664 449 664 z m 33 682 l 486 682 q 596 682 678 655 q 761 627 817 570 q 868 521 895 458 q 923 396 923 331 q 923 259 893 198 q 863 137 809 93 q 754 48 680 24 q 605 0 518 0 l 33 0 l 33 19 l 58 19 q 121 19 152 50 q 182 80 182 143 l 182 540 q 182 604 152 634 q 122 664 58 664 l 33 664 z"},"1":{"x_min":0,"x_max":646,"ha":646,"o":"m 66 18 l 136 18 q 204 18 234 50 q 265 82 265 153 l 265 457 q 265 506 260 528 q 254 550 237 566 q 203 598 137 598 l 85 598 l 85 615 q 144 618 192 626 q 239 633 278 647 q 317 660 363 684 l 396 684 l 396 136 q 396 18 523 18 l 588 18 l 588 0 l 66 0 z"},"5":{"x_min":0,"x_max":646,"ha":646,"o":"m 597 696 l 599 684 q 574 647 551 627 q 527 606 489 586 q 444 563 389 552 q 334 540 272 540 q 209 540 137 551 l 108 353 q 177 393 220 406 q 263 420 322 420 q 375 420 419 411 q 463 402 499 384 q 535 367 562 340 q 590 312 605 277 q 620 242 620 205 q 620 128 564 74 q 476 -12 303 -12 q 251 -12 201 -1 q 150 9 120 26 q 87 45 70 72 q 52 100 52 131 q 52 167 76 190 q 100 214 135 214 q 158 214 176 204 q 194 194 205 176 q 216 159 216 137 q 216 94 171 70 q 152 59 152 50 q 152 34 193 20 q 233 7 283 7 q 375 7 417 56 q 460 105 460 210 q 460 271 441 313 q 422 356 385 378 q 347 401 297 401 q 264 401 234 394 q 205 386 173 370 q 141 354 105 329 l 88 329 l 140 698 q 175 687 202 682 q 276 669 368 669 q 413 669 452 672 q 491 674 527 680 q 563 687 597 696 z"}}}
